<?xml version="1.0" encoding="UTF-8"?>
<svg id="Layer_1" xmlns="http://www.w3.org/2000/svg" xmlns:xlink="http://www.w3.org/1999/xlink" version="1.1" viewBox="0 0 174 67">
  <!-- Generator: Adobe Illustrator 29.0.1, SVG Export Plug-In . SVG Version: 2.1.0 Build 192)  -->
  <defs>
    <style>
      .st0 {
        fill: none;
      }

      .st1 {
        fill: #009937;
      }

      .st2 {
        fill: #001900;
      }

      .st3 {
        clip-path: url(#clippath);
      }
    </style>
    <clipPath id="clippath">
      <rect class="st0" width="174" height="67"/>
    </clipPath>
  </defs>
  <g class="st3">
    <g>
      <path class="st1" d="M73.1,50.8h.6v-1.6h2.4v-.7h-2.4v-.9h2.9v-.7h-3.6v3.9Z"/>
      <path class="st1" d="M79.4,47h-.6v3.9h.6v-3.9Z"/>
      <path class="st1" d="M84.9,49.9l-2.5-2.9h-.7v3.9h.7v-3l2.5,3h.7v-3.9h-.7v2.9Z"/>
      <path class="st1" d="M91.1,47h-2.4c-.2,0-.4,0-.5.2-.1.1-.2.3-.2.5v3.1h.6v-1.3h2.6v1.3h.7v-3.1c0-.2,0-.4-.2-.5-.1-.1-.3-.2-.5-.2ZM91.2,48.9h-2.6v-1.1c0,0,0-.1,0-.2,0,0,0,0,.2,0h2.2c0,0,.1,0,.2,0,0,0,0,0,0,.2v1.1h0Z"/>
      <path class="st1" d="M97.5,49.9l-2.5-2.9h-.7v3.9h.6v-3l2.5,3h.7v-3.9h-.6v2.9Z"/>
      <path class="st1" d="M100.7,47.2c-.1.1-.2.3-.2.5v2.4c0,.2,0,.4.2.5.1.1.3.2.5.2h3.1v-.7h-3c0,0-.1,0-.2,0,0,0,0,0,0-.2v-2.2c0,0,0-.1,0-.2,0,0,0,0,.2,0h3v-.7h-3.1c-.2,0-.4,0-.5.2"/>
      <path class="st1" d="M107.3,47h-.6v3.9h.6v-3.9Z"/>
      <path class="st1" d="M112.8,47h-2.4c-.2,0-.4,0-.5.2-.1.1-.2.3-.2.5v3.1h.6v-1.3h2.6v1.3h.7v-3.1c0-.2,0-.4-.2-.5-.1-.1-.3-.2-.5-.2ZM112.8,48.9h-2.6v-1.1c0,0,0-.1,0-.2,0,0,0,0,.2,0h2.2c0,0,.1,0,.2,0,0,0,0,0,0,.2v1.1h0Z"/>
      <path class="st1" d="M116.5,47h-.6v3.9h3.9v-.7h-3.2v-3.2Z"/>
      <path class="st1" d="M128.4,47h-2.4c-.2,0-.4,0-.5.2-.1.1-.2.3-.2.5v.8c0,.2,0,.4.2.5.1.1.3.2.5.2h2.3c0,0,.1,0,.2,0,0,0,0,0,0,.2v.6c0,0,0,.1,0,.2,0,0,0,0-.2,0h-2.2c0,0-.1,0-.2,0,0,0,0,0,0-.2v-.2h-.6v.3c0,.2,0,.4.2.5.1.1.3.2.5.2h2.4c.2,0,.4,0,.5-.2.1-.1.2-.3.2-.5v-.8c0-.2,0-.4-.2-.5-.1-.1-.3-.2-.5-.2h-2.3c0,0-.1,0-.2,0,0,0,0,0,0-.2v-.6c0,0,0-.1,0-.2,0,0,0,0,.2,0h2.2c0,0,.1,0,.2,0,0,0,0,0,0,.2v.2h.7v-.3c0-.2,0-.4-.2-.5-.2-.1-.4-.2-.6-.2"/>
      <path class="st1" d="M131.5,50.8h3.6v-.7h-2.9v-1h2.3v-.7h-2.3v-.9h2.9v-.7h-3.6v3.9Z"/>
      <path class="st1" d="M140.5,47h-3.2v3.8h.6v-1.3h1.4l1.1,1.3h.7v-.2l-1-1.2h.3c.2,0,.4,0,.5-.2.1-.1.2-.3.2-.5v-1.1c0-.2,0-.4-.2-.5-.2-.2-.3-.2-.5-.2M140.6,48.7c0,0,0,.1,0,.2,0,0,0,0-.2,0h-2.2c0,0-.1,0-.2,0,0,0,0,0,0-.2v-.8c0,0,0-.1,0-.2,0,0,0,0,.2,0h2.2c0,0,.1,0,.2,0s0,0,0,.2v.8Z"/>
      <path class="st1" d="M145.9,50.1l-1.8-3.1h-.8l2.2,3.9h.6l2.2-3.9h-.8l-1.8,3.1Z"/>
      <path class="st1" d="M151.3,47h-.6v3.9h.6v-3.9Z"/>
      <path class="st1" d="M153.8,47.2c-.1.1-.2.3-.2.5v2.4c0,.2,0,.4.2.5.1.1.3.2.5.2h3.1v-.7h-3c0,0-.1,0-.2,0,0,0,0,0,0-.2v-2.2c0,0,0-.1,0-.2,0,0,0,0,.2,0h3v-.7h-3.1c-.2,0-.4,0-.5.2"/>
      <path class="st1" d="M159.8,50.8h3.6v-.7h-2.9v-1h2.3v-.7h-2.3v-.9h2.9v-.7h-3.6v3.9Z"/>
      <path class="st1" d="M168.8,47h-2.4c-.2,0-.4,0-.5.2-.1.1-.2.3-.2.5v.8c0,.2,0,.4.2.5.1.1.3.2.5.2h2.3c0,0,.1,0,.2,0,0,0,0,0,0,.2v.6c0,0,0,.1,0,.2,0,0,0,0-.2,0h-2.2c0,0-.1,0-.2,0,0,0,0,0,0-.2v-.2h-.6v.3c0,.2,0,.4.2.5.1.1.3.2.5.2h2.4c.2,0,.4,0,.5-.2.1-.1.2-.3.2-.5v-.8c0-.2,0-.4-.2-.5-.1-.1-.3-.2-.5-.2h-2.3c0,0-.1,0-.2,0,0,0,0,0,0-.2v-.6c0,0,0-.1,0-.2,0,0,0,0,.2,0h2.2c0,0,.1,0,.2,0,0,0,0,0,0,.2v.2h.7v-.3c0-.2,0-.4-.2-.5-.2-.1-.4-.2-.6-.2"/>
      <path class="st2" d="M83.7,28.5h-10.9v13.5h10.9c.7,0,1.4-.3,1.9-.8.5-.5.8-1.1.8-1.8v-8.3c0-.7-.3-1.3-.8-1.8-.5-.5-1.1-.7-1.9-.7ZM83.9,38.9c0,.3,0,.6,0,.6,0,0-.3,0-.6,0h-7.3c-.3,0-.6,0-.6,0,0,0,0-.3,0-.6v-7.2c0-.3,0-.5,0-.6,0,0,.3,0,.6,0h7.3c.3,0,.5,0,.6,0,0,0,0,.3,0,.6v7.2Z"/>
      <path class="st2" d="M91.4,28.5h-2.5v13.5h2.5v-13.5Z"/>
      <path class="st2" d="M107.3,39.5h-11.1v-11h-2.5v13.5h13.6v-2.5Z"/>
      <path class="st2" d="M111.3,28.5h-2.5v13.5h2.5v-13.5Z"/>
      <path class="st2" d="M127.1,39.4v-5.1h-5.6v2.5h3.1v2c0,.3,0,.6,0,.6,0,0-.3,0-.6,0h-7.3c-.3,0-.5,0-.6,0,0,0,0-.3,0-.6v-7.2c0-.3,0-.5,0-.6,0,0,.3,0,.6,0h7.3c.3,0,.5,0,.6,0,0,0,0,.3,0,.6v.5h2.5v-1.1c0-.7-.3-1.3-.8-1.8-.5-.5-1.1-.8-1.9-.8h-8.3c-.7,0-1.3.3-1.9.8-.5.5-.8,1.1-.8,1.8v8.3c0,.7.3,1.3.8,1.8.5.5,1.1.8,1.9.8h8.3c.7,0,1.4-.3,1.9-.8.5-.5.8-1.1.8-1.8"/>
      <path class="st2" d="M129.8,42h12.5v-2.5h-10v-3h8v-2.5h-8v-3h10v-2.5h-12.5v13.5Z"/>
      <path class="st2" d="M155.9,38.4l-8.3-9.9h-2.7v13.5h2.5v-9.9l8.4,9.9h2.7v-13.5h-2.5v9.9Z"/>
      <path class="st2" d="M160.4,28.5v2.5h5.5v11h2.5v-11h5.5v-2.5h-13.6Z"/>
      <path class="st2" d="M0,26.5h9.2V9.1h31.1c4.6,0,8.7,1.6,11.6,4.4,2.7,2.7,4.2,6.4,4.2,10.6v2.4h9.3,0v-2.4c0-13.6-11-24.2-24.9-24.2H0h0v26.5H0Z"/>
      <path class="st1" d="M42.9,37.1h22.2v-9.1h-31.3v21.9h20c0,0-.2,0-.2,0h0c-3.2,5.1-8,8-13.5,8H10.9v9.1h29.4c12.2,0,22.8-9,24.6-20.9h0c0,0,.4-5.3.4-5.3h-22.3v-3.7Z"/>
      <path class="st1" d="M32.2,49.7h0v-9.1H9.2v-3.5h23v-9.1H0v39.1h9.2v-17.4h23Z"/>
    </g>
  </g>
</svg>