<svg width="174" height="67" viewBox="0 0 174 67" fill="none" xmlns="http://www.w3.org/2000/svg">
<g clip-path="url(#clip0_32_5753)">
<path d="M73.0996 50.85H73.7368V49.238H76.096V48.5843H73.7368V47.6439H76.655V46.9902H73.0996V50.85Z" fill="#009937"/>
<path d="M79.3637 46.9902H78.7266V50.85H79.3637V46.9902Z" fill="#009937"/>
<path d="M84.9114 49.9276L82.4169 46.9902H81.6836V50.85H82.3388V47.8947L84.8332 50.85H85.5696V46.9902H84.9114V49.9276Z" fill="#009937"/>
<path d="M91.096 46.9902H88.6797C88.4873 46.9902 88.313 47.0678 88.1567 47.2021C88.0215 47.3364 87.9434 47.5096 87.9434 47.7215V50.85H88.5805V49.5246H91.1531V50.85H91.8113V47.7215C91.8113 47.5275 91.7332 47.3573 91.5979 47.2021C91.4807 47.0678 91.3064 46.9902 91.096 46.9902ZM91.1742 48.8708H88.6015V47.8141C88.6015 47.7185 88.6226 47.6797 88.6406 47.6618C88.6616 47.6409 88.7187 47.6409 88.7969 47.6409H90.9818C91.078 47.6409 91.1171 47.6409 91.1561 47.6618C91.1952 47.6797 91.1952 47.7365 91.1952 47.8141V48.8708H91.1742Z" fill="#009937"/>
<path d="M97.4583 49.9276L94.9638 46.9902H94.2305V50.85H94.8676V47.8947L97.3621 50.85H98.0954V46.9902H97.4583V49.9276Z" fill="#009937"/>
<path d="M100.686 47.2021C100.551 47.3364 100.473 47.5096 100.473 47.7215V50.1216C100.473 50.3127 100.551 50.4858 100.686 50.6411C100.821 50.7754 100.996 50.853 101.209 50.853H104.341V50.1993H101.305C101.209 50.1993 101.17 50.1993 101.131 50.1784C101.11 50.1575 101.092 50.1007 101.092 50.0231V47.835C101.092 47.7394 101.113 47.7006 101.131 47.6797C101.149 47.6588 101.206 47.6588 101.305 47.6588H104.341V47.0051H101.209C101.017 46.9842 100.842 47.0618 100.686 47.1961" fill="#009937"/>
<path d="M107.299 46.9902H106.662V50.85H107.299V46.9902Z" fill="#009937"/>
<path d="M112.772 46.9902H110.355C110.163 46.9902 109.989 47.0678 109.833 47.2021C109.697 47.3364 109.619 47.5096 109.619 47.7215V50.85H110.256V49.5246H112.829V50.85H113.487V47.7215C113.487 47.5275 113.409 47.3573 113.274 47.2021C113.156 47.0678 112.982 46.9902 112.772 46.9902ZM112.847 48.8708H110.274V47.8141C110.274 47.7185 110.295 47.6797 110.313 47.6618C110.334 47.6409 110.392 47.6409 110.47 47.6409H112.655C112.751 47.6409 112.79 47.6409 112.829 47.6618C112.868 47.6797 112.868 47.7365 112.868 47.8141V48.8708H112.847Z" fill="#009937"/>
<path d="M116.539 46.9902H115.902V50.85H119.788V50.1963H116.539V46.9902Z" fill="#009937"/>
<path d="M128.391 46.9902H125.954C125.761 46.9902 125.587 47.0678 125.452 47.2021C125.316 47.3364 125.238 47.5096 125.238 47.7215V48.5275C125.238 48.7186 125.316 48.8917 125.452 49.0261C125.587 49.1604 125.761 49.238 125.954 49.238H128.274C128.37 49.238 128.409 49.238 128.448 49.2559C128.469 49.2768 128.487 49.3335 128.487 49.4112V49.9873C128.487 50.0828 128.466 50.1216 128.448 50.1395C128.427 50.1604 128.37 50.1604 128.274 50.1604H126.068C125.972 50.1604 125.933 50.1604 125.914 50.1395C125.893 50.1216 125.893 50.0649 125.893 49.9873V49.8321H125.256V50.0828C125.256 50.2739 125.334 50.447 125.47 50.6023C125.605 50.7366 125.779 50.8142 125.972 50.8142H128.409C128.601 50.8142 128.776 50.7366 128.911 50.6023C129.046 50.4679 129.124 50.2948 129.124 50.0828V49.2768C129.124 49.0858 129.049 48.9126 128.911 48.7783C128.776 48.644 128.601 48.5663 128.409 48.5663H126.089C125.993 48.5663 125.954 48.5663 125.933 48.5484C125.914 48.5275 125.914 48.4708 125.914 48.3932V47.8171C125.914 47.7215 125.914 47.6827 125.933 47.6618C125.954 47.6439 126.011 47.6439 126.089 47.6439H128.292C128.388 47.6439 128.427 47.6439 128.466 47.6618C128.487 47.6827 128.505 47.7394 128.505 47.8171V47.9723H129.163V47.7215C129.163 47.5305 129.085 47.3573 128.95 47.2021C128.758 47.0678 128.583 46.9902 128.388 46.9902" fill="#009937"/>
<path d="M131.486 50.85H135.042V50.1963H132.142V49.238H134.483V48.5843H132.142V47.6439H135.042V46.9902H131.486V50.85Z" fill="#009937"/>
<path d="M140.532 46.9902H137.379V50.8321H138.016V49.4888H139.368L140.508 50.8321H141.244V50.6769L140.219 49.4858H140.529C140.721 49.4858 140.895 49.4082 141.051 49.2738C141.187 49.1395 141.265 48.9664 141.265 48.7753V47.7185C141.265 47.5245 141.187 47.3543 141.051 47.22C140.898 47.0648 140.724 46.9902 140.529 46.9902M140.592 48.6619C140.592 48.7574 140.592 48.7962 140.571 48.8171C140.553 48.835 140.492 48.835 140.414 48.835H138.229C138.133 48.835 138.094 48.835 138.055 48.8171C138.037 48.7962 138.016 48.7395 138.016 48.6619V47.835C138.016 47.7394 138.037 47.7006 138.055 47.6797C138.076 47.6588 138.133 47.6409 138.229 47.6409H140.414C140.511 47.6409 140.55 47.6588 140.571 47.6797C140.592 47.7006 140.592 47.7574 140.592 47.835V48.6619Z" fill="#009937"/>
<path d="M145.887 50.0828L144.108 46.9902H143.354L145.599 50.85H146.197L148.439 46.9902H147.684L145.887 50.0828Z" fill="#009937"/>
<path d="M151.262 46.9902H150.625V50.85H151.262V46.9902Z" fill="#009937"/>
<path d="M153.776 47.2021C153.641 47.3364 153.562 47.5096 153.562 47.7215V50.1216C153.562 50.3127 153.641 50.4858 153.776 50.6411C153.911 50.7754 154.085 50.853 154.299 50.853H157.43V50.1993H154.395C154.299 50.1993 154.26 50.1993 154.221 50.1784C154.2 50.1575 154.182 50.1007 154.182 50.0231V47.835C154.182 47.7394 154.203 47.7006 154.221 47.6797C154.239 47.6588 154.296 47.6588 154.395 47.6588H157.43V47.0051H154.299C154.106 46.9842 153.932 47.0618 153.776 47.1961" fill="#009937"/>
<path d="M159.787 50.85H163.345V50.1963H160.445V49.238H162.783V48.5843H160.445V47.6439H163.345V46.9902H159.787V50.85Z" fill="#009937"/>
<path d="M168.815 46.9902H166.377C166.185 46.9902 166.011 47.0678 165.875 47.2021C165.74 47.3364 165.662 47.5096 165.662 47.7215V48.5275C165.662 48.7186 165.74 48.8917 165.875 49.0261C166.011 49.1604 166.185 49.238 166.377 49.238H168.698C168.794 49.238 168.833 49.238 168.872 49.2559C168.893 49.2768 168.911 49.3335 168.911 49.4112V49.9873C168.911 50.0828 168.89 50.1216 168.872 50.1395C168.851 50.1604 168.794 50.1604 168.698 50.1604H166.492C166.395 50.1604 166.356 50.1604 166.338 50.1395C166.317 50.1216 166.317 50.0649 166.317 49.9873V49.8321H165.68V50.0828C165.68 50.2739 165.758 50.447 165.894 50.6023C166.029 50.7366 166.203 50.8142 166.395 50.8142H168.833C169.025 50.8142 169.199 50.7366 169.335 50.6023C169.47 50.4679 169.548 50.2948 169.548 50.0828V49.2768C169.548 49.0858 169.473 48.9126 169.335 48.7783C169.199 48.644 169.025 48.5663 168.833 48.5663H166.513C166.416 48.5663 166.377 48.5663 166.356 48.5484C166.338 48.5275 166.338 48.4708 166.338 48.3932V47.8171C166.338 47.7215 166.338 47.6827 166.356 47.6618C166.377 47.6439 166.434 47.6439 166.513 47.6439H168.716C168.812 47.6439 168.851 47.6439 168.89 47.6618C168.911 47.6827 168.929 47.7394 168.929 47.8171V47.9723H169.587V47.7215C169.587 47.5305 169.509 47.3573 169.374 47.2021C169.181 47.0678 169.007 46.9902 168.812 46.9902" fill="#009937"/>
<path d="M83.7336 28.5177H72.791V42.0168H83.7336C84.4669 42.0168 85.0861 41.766 85.609 41.2496C86.1319 40.7302 86.3814 40.1152 86.3814 39.4047V31.1088C86.3814 30.3984 86.1289 29.7834 85.609 29.267C85.0861 28.7684 84.4669 28.5177 83.7336 28.5177ZM83.8689 38.8674C83.8689 39.2137 83.8478 39.4256 83.7907 39.4615C83.7336 39.5003 83.5383 39.5212 83.2107 39.5212H75.9407C75.592 39.5212 75.3787 39.5003 75.3396 39.4615C75.3005 39.4226 75.2825 39.2107 75.2825 38.8674V31.6671C75.2825 31.3208 75.3035 31.1297 75.3396 31.073C75.3787 31.0342 75.592 31.0163 75.9407 31.0163H83.2107C83.5593 31.0163 83.7517 31.0342 83.7907 31.073C83.8478 31.1118 83.8689 31.3238 83.8689 31.6671V38.8674Z" fill="#E8FFE6"/>
<path d="M91.4441 28.5177H88.9707V42.0168H91.4441V28.5177Z" fill="#E8FFE6"/>
<path d="M107.281 39.5212H96.182V28.4968H93.6875V42.0168H107.281V39.5212Z" fill="#E8FFE6"/>
<path d="M111.337 28.5177H108.863V42.0168H111.337V28.5177Z" fill="#E8FFE6"/>
<path d="M127.134 39.4047V34.3538H121.547V36.8494H124.621V38.8644C124.621 39.2107 124.6 39.4226 124.543 39.4585C124.486 39.4973 124.291 39.5152 123.963 39.5152H116.693C116.344 39.5152 116.152 39.4973 116.095 39.4585C116.056 39.4197 116.038 39.2077 116.038 38.8644V31.6641C116.038 31.3178 116.056 31.1268 116.095 31.07C116.134 31.0312 116.347 31.0103 116.693 31.0103H123.963C124.312 31.0103 124.504 31.0312 124.543 31.07C124.6 31.1088 124.621 31.3208 124.621 31.6641V32.1626H127.134V31.1059C127.134 30.3954 126.881 29.7804 126.361 29.264C125.838 28.7446 125.219 28.4968 124.486 28.4968H116.155C115.44 28.4968 114.821 28.7475 114.298 29.264C113.775 29.7834 113.525 30.3954 113.525 31.1059V39.4018C113.525 40.1122 113.778 40.7272 114.298 41.2436C114.821 41.7631 115.44 42.0108 116.155 42.0108H124.486C125.219 42.0108 125.838 41.7601 126.361 41.2436C126.884 40.7242 127.134 40.1301 127.134 39.4018" fill="#E8FFE6"/>
<path d="M129.82 42.0168H142.329V39.5212H132.336V36.524H140.378V34.0105H132.336V31.0133H142.329V28.5177H129.82V42.0168Z" fill="#E8FFE6"/>
<path d="M155.883 38.3868L147.549 28.5177H144.805V42.0168H147.299V32.1447L155.669 42.0168H158.395V28.5177H155.883V38.3868Z" fill="#E8FFE6"/>
<path d="M160.406 28.5177V31.0133H165.954V42.0168H168.47V31.0133H174V28.5177H160.406Z" fill="#E8FFE6"/>
<path d="M0.0210377 26.5385H9.18447V9.1019H40.2542C44.8374 9.1019 48.9337 10.6751 51.8159 13.5379C54.5598 16.2664 55.9904 19.9322 55.9904 24.1772V26.5594H65.25L65.1538 26.4639V24.1772C65.1538 10.6184 54.1902 0 40.2331 0H0L0.0210377 0.0208965V26.5415V26.5385Z" fill="#E8FFE6"/>
<path d="M42.9387 37.0614H65.1516V27.9595H33.8895V49.8888H53.7822L53.9174 49.8112L53.7431 49.9067H53.7612C50.5905 54.9965 45.7398 57.8772 40.2279 57.8772H10.8652V66.9791H40.2309C52.4298 66.9791 63.0057 57.9906 64.8601 46.0856L64.8811 45.9901L65.2688 40.7481H42.9387V37.0614Z" fill="#009937"/>
<path d="M32.1701 49.6589V49.641V40.5391H9.18492V37.0614H32.2302V27.9415H0.0214844V67H9.18492V49.641H32.1521L32.1701 49.6589Z" fill="#009937"/>
</g>
<defs>
<clipPath id="clip0_32_5753">
<rect width="174" height="67" fill="white"/>
</clipPath>
</defs>
</svg>
